# xmcd
#
# Track frame offsets:
#	150
#	8597
#	27430
#	42124
#	59462
#	80853
#	100570
#	113727
#	129927
#	150027
#	156992
#	170648
#
# Disc length: 2494 seconds
# Revision: 0
# Processed by: cddbd v1.5.2PL0 Copyright (c) Steve Scherf et al.
# Submitted via: dBpowerAMP V12.0
#
DISCID=8609bc0c
DTITLE=Steve Krase - Someday
DYEAR=2013
DGENRE=Blues
TTITLE0=Why People Like That
TTITLE1=Put the Cokane Down
TTITLE2=Jealous Love
TTITLE3=Goin' Down for the Last Time
TTITLE4=Someday
TTITLE5=She Does It Right
TTITLE6=Texistential Blues (Song for Jerry)
TTITLE7=Down the Line
TTITLE8=Did You No Wrong
TTITLE9=Blister in the Sun
TTITLE10=I'm a Rocker
TTITLE11=When the Levee Breaks
EXTD=
EXTT0=
EXTT1=
EXTT2=
EXTT3=
EXTT4=
EXTT5=
EXTT6=
EXTT7=
EXTT8=
EXTT9=
EXTT10=
EXTT11=
PLAYORDER=
